<svg width="44" height="24" viewBox="0 0 44 24" fill="none" xmlns="http://www.w3.org/2000/svg">
<path d="M18.372 0H0V19.2071H18.372V0Z" fill="#DE0029"/>
<path d="M14.9607 6.47168L14.5914 7.68433L13.375 7.69796L14.3612 8.43372L14.0049 9.61913L14.9607 8.89244L15.9294 9.6055L15.5602 8.4201L16.529 7.66616L15.3386 7.68433L14.9607 6.47168Z" fill="white"/>
<path d="M13.0364 9.2334L12.6671 10.4461L11.4551 10.4597L12.4369 11.1954L12.085 12.3808L13.0364 11.6542L14.0095 12.3672L13.6403 11.1818L14.609 10.4279L13.4187 10.4461L13.0364 9.2334Z" fill="white"/>
<path d="M5.35911 9.2334L4.9855 10.4461L3.77344 10.4597L4.75525 11.1954L4.39902 12.3808L5.35911 11.6542L6.32354 12.3672L5.95428 11.1818L6.9274 10.4279L5.73272 10.4461L5.35911 9.2334Z" fill="white"/>
<path d="M9.19114 9.2334L8.82187 10.4461L7.60547 10.4597L8.58728 11.1954L8.23105 12.3808L9.19114 11.6542L10.1599 12.3672L9.79065 11.1818L10.7594 10.4279L9.56475 10.4461L9.19114 9.2334Z" fill="white"/>
<path d="M11.1208 6.47168L10.7516 7.68433L9.53516 7.69796L10.5257 8.43372L10.1694 9.61913L11.1208 8.89244L12.0939 9.6055L11.7247 8.4201L12.6935 7.66616L11.5031 7.68433L11.1208 6.47168Z" fill="white"/>
<path d="M7.28098 6.47168L6.91172 7.68433L5.69531 7.69796L6.68147 8.43372L6.32524 9.61913L7.28098 8.89244L8.24976 9.6055L7.8805 8.4201L8.85362 7.66616L7.65459 7.68433L7.28098 6.47168Z" fill="white"/>
<path d="M3.45286 6.47168L3.08359 7.68433L1.86719 7.69796L2.85334 8.43372L2.49711 9.61913L3.45286 8.89244L4.42598 9.6055L4.05237 8.4201L5.02549 7.66616L3.83081 7.68433L3.45286 6.47168Z" fill="white"/>
<path d="M22.3721 0V15.1713H26.967V24L31.563 15.2726H43.3721V0H22.3721Z" fill="white"/>
</svg>
